<?xml version="1.0" encoding="utf-8"?>
<!-- Generator: Adobe Illustrator 27.8.0, SVG Export Plug-In . SVG Version: 6.00 Build 0)  -->
<svg version="1.1" id="Layer_1" xmlns="http://www.w3.org/2000/svg" xmlns:xlink="http://www.w3.org/1999/xlink" x="0px" y="0px"
	 width="40px" height="40px" viewBox="0 0 40 40" style="enable-background:new 0 0 40 40;" xml:space="preserve">
<style type="text/css">
	.st0{fill:#FFFFFF;}
</style>
<g>
	<path class="st0" d="M1.2,33.5c0-0.1,0.1-0.2,0.1-0.3C1.6,31.9,2.7,31,4,30.9c0.1,0,0.2,0,0.3,0c10.4,0,20.8,0,31.3,0
		c1.6,0,2.7,0.8,3.1,2.4c0,0,0,0.1,0.1,0.1c0,0.3,0,0.6,0,0.9c0,0,0,0,0,0.1c-0.5,1.7-1.5,2.4-3.2,2.4c-2.3,0-4.5,0-6.8,0
		c-8.2,0-16.3,0-24.5,0c-1.6,0-2.7-0.9-3.1-2.4c0,0,0-0.1-0.1-0.1C1.2,34,1.2,33.8,1.2,33.5z"/>
	<path class="st0" d="M38.8,6.5c0,0.1-0.1,0.2-0.1,0.2C38.4,8.1,37.3,9,36,9.1c-0.2,0-0.3,0-0.5,0c-10.2,0-20.5,0-30.7,0
		c-2.2,0-2.9-0.5-3.6-2.6c0-0.3,0-0.6,0-0.9c0,0,0,0,0-0.1c0.5-1.7,1.5-2.4,3.2-2.4c8.9,0,17.8,0,26.8,0c1.6,0,3.1,0,4.7,0
		c1.2,0,2.3,0.8,2.7,2c0.1,0.2,0.1,0.3,0.2,0.5C38.8,6,38.8,6.3,38.8,6.5z"/>
	<path class="st0" d="M38.8,20.4c0,0.1-0.1,0.3-0.1,0.4c-0.4,1.2-1.4,2-2.7,2.1c-0.1,0-0.2,0-0.4,0c-10.4,0-20.9,0-31.3,0
		c-1.7,0-2.7-0.8-3.1-2.4c0,0,0-0.1-0.1-0.1c0-0.3,0-0.6,0-0.9c0-0.1,0.1-0.3,0.1-0.4c0.4-1.2,1.4-2,2.7-2.1c0.1,0,0.2,0,0.4,0
		c10.4,0,20.9,0,31.3,0c1.7,0,2.7,0.8,3.1,2.4c0,0,0,0.1,0.1,0.1C38.8,19.9,38.8,20.1,38.8,20.4z"/>
</g>
</svg>
