<?xml version="1.0" encoding="utf-8"?>
<!-- Generator: Adobe Illustrator 27.8.0, SVG Export Plug-In . SVG Version: 6.00 Build 0)  -->
<svg version="1.1" id="Layer_1" xmlns="http://www.w3.org/2000/svg" xmlns:xlink="http://www.w3.org/1999/xlink" x="0px" y="0px"
	 width="35.6px" height="35.5px" viewBox="0 0 35.6 35.5" style="enable-background:new 0 0 35.6 35.5;" xml:space="preserve">
<style type="text/css">
	.st0{fill:#FFFFFF;}
</style>
<g>
	<path class="st0" d="M1.3,30.6c0.2-1,0.9-1.7,1.5-2.4c3.4-3.4,6.8-6.8,10.2-10.1c0.1-0.1,0.2-0.2,0.4-0.2c-0.2-0.2-0.2-0.3-0.3-0.3
		C9.5,14,5.9,10.5,2.4,6.9C1.3,5.7,1.2,3.9,2.2,2.7S5,1.2,6.4,2.1c0.2,0.1,0.3,0.3,0.5,0.4c3.5,3.5,7,7,10.5,10.5
		c0.1,0.1,0.2,0.2,0.3,0.4c0.1-0.1,0.2-0.2,0.3-0.3c3.5-3.5,7-7,10.5-10.5c1.8-1.7,4.6-1,5.3,1.2c0.4,1.1,0.1,2.2-0.8,3
		c-3.5,3.5-7,7-10.5,10.5c-0.1,0.1-0.2,0.2-0.3,0.3c0.2,0.2,0.3,0.3,0.4,0.4c3.6,3.5,7.1,7.1,10.7,10.6c0.7,0.7,1,1.4,1,2.4
		c0,1.6-1.3,2.9-2.9,2.9c-1.1,0-2-0.4-2.7-1.1c-3.5-3.5-6.9-7-10.4-10.4c-0.1-0.1-0.2-0.2-0.3-0.4c-0.1,0.2-0.2,0.3-0.3,0.4
		C14.1,25.9,10.5,29.5,7,33c-1,1-2.9,1.3-4.3,0.5c-0.7-0.4-1-1-1.2-1.8c0-0.1,0-0.1-0.1-0.2C1.3,31.2,1.3,30.9,1.3,30.6z"/>
</g>
</svg>
