<?xml version="1.0" encoding="utf-8"?>
<!-- Generator: Adobe Illustrator 27.8.0, SVG Export Plug-In . SVG Version: 6.00 Build 0)  -->
<svg version="1.1" id="Layer_1" xmlns="http://www.w3.org/2000/svg" xmlns:xlink="http://www.w3.org/1999/xlink" x="0px" y="0px"
	 width="40px" height="40px" viewBox="0 0 40 40" style="enable-background:new 0 0 40 40;" xml:space="preserve">
<style type="text/css">
	.st0{fill:#FFFFFF;}
</style>
<g>
	<path class="st0" d="M20,8.8c5.7,0,11.5,0,17.2,0c0.9,0,1.7,0.3,2.1,1.2c0.4,0.8,0.2,1.7-0.5,2.4c-1,1.1-2.1,2.2-3.2,3.4
		c-4.5,4.7-8.9,9.5-13.4,14.2c-1.5,1.6-3.3,1.6-4.7,0c-5.5-5.8-11-11.6-16.4-17.5c-0.5-0.5-0.8-1.1-0.8-1.8c0.1-1,0.9-1.9,1.9-1.9
		c0.2,0,0.4,0,0.6,0C8.7,8.8,14.3,8.8,20,8.8z"/>
</g>
</svg>
