<?xml version="1.0" encoding="utf-8"?>
<!-- Generator: Adobe Illustrator 27.8.0, SVG Export Plug-In . SVG Version: 6.00 Build 0)  -->
<svg version="1.1" id="Layer_1" xmlns="http://www.w3.org/2000/svg" xmlns:xlink="http://www.w3.org/1999/xlink" x="0px" y="0px"
	 width="40px" height="40px" viewBox="0 0 40 40" style="enable-background:new 0 0 40 40;" xml:space="preserve">
<style type="text/css">
	.st0{fill:#496D96;}
</style>
<g>
	<path class="st0" d="M28.5,39.7c1.2-0.4,1.9-1.3,2.6-2.2c0.6-0.7,0.6-1.8,0-2.6c-0.1-0.2-0.3-0.3-0.4-0.5
		c-4.7-4.7-9.4-9.4-14.1-14.1c-0.1-0.1-0.2-0.2-0.4-0.3c0.2-0.2,0.3-0.3,0.4-0.4c4.7-4.7,9.5-9.5,14.2-14.2c0.8-0.8,1.1-1.9,0.5-2.7
		c-0.6-0.8-1.3-1.5-2.1-2.1c-0.7-0.6-1.7-0.4-2.4,0.2c-0.1,0.1-0.2,0.2-0.3,0.3C20.7,6.8,15,12.6,9.2,18.3c-0.9,0.9-1,1.9-0.5,2.8
		c0.1,0.2,0.3,0.4,0.5,0.6c5.7,5.7,11.5,11.5,17.2,17.2c0.3,0.3,0.8,0.6,1.3,0.8C28,39.7,28.3,39.7,28.5,39.7z"/>
</g>
</svg>
