<?xml version="1.0" encoding="UTF-8"?>
<svg id="Layer_1" xmlns="http://www.w3.org/2000/svg" version="1.1" viewBox="0 0 88.5 85.5">
  <!-- Generator: Adobe Illustrator 29.6.1, SVG Export Plug-In . SVG Version: 2.1.1 Build 9)  -->
  <defs>
    <style>
      .st0 {
        fill: #9bc3e8;
      }

      .st1 {
        fill: #cfe5f7;
      }

      .st2 {
        fill: #86a7d8;
      }

      .st3 {
        fill: #e7f6fd;
      }

      .st4 {
        fill: #2f75eb;
      }

      .st5 {
        fill: #5e80c1;
      }

      .st6 {
        fill: #b5d7f2;
      }

      .st7 {
        fill: #7193cc;
      }
    </style>
  </defs>
  <path class="st4" d="M20.5,36.9H4.7c-2.2,0-3.9,1.8-3.9,3.9s1.8,3.9,3.9,3.9h15.7c2.2,0,3.9-1.8,3.9-3.9.1-2.2-1.7-3.9-3.8-3.9Z"/>
  <path class="st0" d="M83.4,36.9h-15.7c-2.2,0-3.9,1.8-3.9,3.9s1.8,3.9,3.9,3.9h15.7c2.2,0,3.9-1.8,3.9-3.9.1-2.2-1.7-3.9-3.9-3.9Z"/>
  <path class="st5" d="M24.6,54.7l-11.1,11.2c-1.5,1.5-1.5,4,0,5.6.8.8,1.8,1.2,2.8,1.2s2-.4,2.8-1.2l11.1-11.1c1.5-1.5,1.5-4,0-5.6s-4.1-1.6-5.6-.1Z"/>
  <path class="st6" d="M69.1,10.2l-11.1,11.1c-1.5,1.5-1.5,4,0,5.6.8.8,1.8,1.2,2.8,1.2s2-.4,2.8-1.2l11.1-11.1c1.5-1.5,1.5-4,0-5.6-1.5-1.5-4-1.5-5.6,0Z"/>
  <path class="st7" d="M44.3,60.5c-2.2,0-3.9,1.8-3.9,3.9v15.7c0,2.2,1.8,3.9,3.9,3.9s3.9-1.8,3.9-3.9v-15.7c.1-2.1-1.7-3.9-3.9-3.9Z"/>
  <path class="st2" d="M63.6,54.7c-1.5-1.5-4-1.5-5.6,0-1.5,1.5-1.5,4,0,5.6l11.1,11.1c.8.8,1.8,1.2,2.8,1.2s2-.4,2.8-1.2c1.5-1.5,1.5-4,0-5.6l-11.1-11.1Z"/>
  <path class="st1" d="M40.4,4.9v15.7c0,2.2,1.8,3.9,3.9,3.9,1.1,0,2.1-.4,2.8-1.2.7-.7,1.2-1.7,1.2-2.8V4.8c0-2.2-1.8-3.9-3.9-3.9-2.2.1-4,1.8-4,4Z"/>
  <path class="st3" d="M13.2,16.3l11.1,11.1c1.5,1.5,4,1.5,5.6,0,.8-.8,1.2-1.8,1.2-2.8s-.4-2-1.2-2.8l-11.1-11c-1.5-1.5-4-1.5-5.6,0-1.5,1.5-1.5,4,0,5.5Z"/>
</svg>