<?xml version="1.0" encoding="utf-8"?>
<!-- Generator: Adobe Illustrator 27.8.0, SVG Export Plug-In . SVG Version: 6.00 Build 0)  -->
<svg version="1.1" id="Layer_1" xmlns="http://www.w3.org/2000/svg" xmlns:xlink="http://www.w3.org/1999/xlink" x="0px" y="0px"
	 width="68px" height="68px" viewBox="0 0 68 68" style="enable-background:new 0 0 68 68;" xml:space="preserve">
<style type="text/css">
	.st0{fill:#FFFFFF;}
</style>
<g>
	<path class="st0" d="M55.8,18.4c-3.4,0-6.2-2.7-6.2-6.2c0-3.4,2.7-6.2,6.2-6.3c3.5,0,6.3,2.8,6.3,6.2C62,15.6,59.3,18.4,55.8,18.4z
		"/>
	<path class="st0" d="M49.6,55.8c0-3.4,2.7-6.2,6.2-6.2c3.5,0,6.3,2.8,6.3,6.2c0,3.4-2.8,6.2-6.2,6.2C52.4,62,49.6,59.3,49.6,55.8z"
		/>
	<path class="st0" d="M12.2,18.4c-3.4,0-6.2-2.8-6.2-6.2C6,8.8,8.8,5.9,12.2,6c3.4,0,6.2,2.8,6.2,6.2C18.4,15.7,15.6,18.4,12.2,18.4
		z"/>
	<path class="st0" d="M27.8,34c0-3.4,2.8-6.2,6.2-6.2c3.4,0,6.3,2.9,6.2,6.3c-0.1,3.4-2.9,6.2-6.3,6.2C30.5,40.2,27.7,37.4,27.8,34z
		"/>
	<path class="st0" d="M18.4,55.8c0,3.4-2.8,6.2-6.2,6.2c-3.4,0-6.3-2.8-6.2-6.3c0-3.4,2.8-6.2,6.2-6.2
		C15.7,49.6,18.4,52.4,18.4,55.8z"/>
	<path class="st0" d="M34,18.4c-3.4,0-6.2-2.8-6.2-6.2c0-3.4,2.9-6.2,6.3-6.2c3.4,0,6.2,2.9,6.2,6.3C40.2,15.7,37.4,18.4,34,18.4z"
		/>
	<path class="st0" d="M34,49.6c3.4,0,6.2,2.8,6.2,6.2c0,3.4-2.8,6.3-6.3,6.2c-3.4,0-6.2-2.8-6.2-6.2C27.8,52.4,30.6,49.6,34,49.6z"
		/>
	<path class="st0" d="M18.4,34c0,3.4-2.8,6.2-6.2,6.2c-3.4,0-6.3-2.8-6.2-6.3c0-3.4,2.9-6.2,6.3-6.2C15.7,27.8,18.4,30.6,18.4,34z"
		/>
	<path class="st0" d="M49.6,34c0-3.4,2.7-6.2,6.2-6.3c3.4,0,6.3,2.8,6.3,6.2c0,3.4-2.8,6.2-6.2,6.2C52.4,40.3,49.6,37.5,49.6,34z"/>
</g>
</svg>
