<?xml version="1.0" encoding="utf-8"?>
<!-- Generator: Adobe Illustrator 27.8.0, SVG Export Plug-In . SVG Version: 6.00 Build 0)  -->
<svg version="1.1" id="Layer_1" xmlns="http://www.w3.org/2000/svg" xmlns:xlink="http://www.w3.org/1999/xlink" x="0px" y="0px"
	 width="40px" height="40px" viewBox="0 0 40 40" style="enable-background:new 0 0 40 40;" xml:space="preserve">
<style type="text/css">
	.st0{fill:#676767;}
</style>
<g>
	<path class="st0" d="M11.5,39.7c-1.2-0.4-1.9-1.3-2.6-2.2c-0.6-0.7-0.6-1.8,0-2.6c0.1-0.2,0.3-0.3,0.4-0.5
		c4.7-4.7,9.4-9.4,14.1-14.1c0.1-0.1,0.2-0.2,0.4-0.3c-0.2-0.2-0.3-0.3-0.4-0.4C18.7,14.9,14,10.2,9.2,5.4C8.4,4.6,8.1,3.5,8.8,2.7
		c0.6-0.8,1.3-1.5,2.1-2.1c0.7-0.6,1.7-0.4,2.4,0.2c0.1,0.1,0.2,0.2,0.3,0.3C19.3,6.8,25,12.6,30.8,18.3c0.9,0.9,1,1.9,0.5,2.8
		c-0.1,0.2-0.3,0.4-0.5,0.6C25,27.4,19.3,33.2,13.6,38.9c-0.3,0.3-0.8,0.6-1.3,0.8C12,39.7,11.7,39.7,11.5,39.7z"/>
</g>
</svg>
