<?xml version="1.0" encoding="utf-8"?>
<!-- Generator: Adobe Illustrator 27.8.0, SVG Export Plug-In . SVG Version: 6.00 Build 0)  -->
<svg version="1.1" id="Layer_1" xmlns="http://www.w3.org/2000/svg" xmlns:xlink="http://www.w3.org/1999/xlink" x="0px" y="0px"
	 width="69px" height="185px" viewBox="0 0 69 185" style="enable-background:new 0 0 69 185;" xml:space="preserve">
<style type="text/css">
	.st0{fill:#FFFFFF;}
</style>
<g>
	<path class="st0" d="M17.2,92.5c0-9.5,7.8-17.3,17.3-17.3c9.5,0,17.5,7.9,17.4,17.4c-0.1,9.5-7.9,17.3-17.4,17.2
		C25,109.8,17.2,102,17.2,92.5z"/>
	<path class="st0" d="M34.5,179.1c-9.6,0-17.3-7.7-17.3-17.2c0-9.6,7.9-17.4,17.5-17.4c9.5,0,17.3,7.9,17.2,17.4
		C51.8,171.4,44,179.1,34.5,179.1z"/>
	<path class="st0" d="M34.6,5.9c9.5,0,17.3,7.9,17.2,17.3c-0.1,9.6-7.9,17.4-17.5,17.3c-9.5-0.1-17.3-8-17.1-17.5
		C17.3,13.5,25,5.9,34.6,5.9z"/>
</g>
</svg>
