<?xml version="1.0" encoding="utf-8"?>
<!-- Generator: Adobe Illustrator 27.8.0, SVG Export Plug-In . SVG Version: 6.00 Build 0)  -->
<svg version="1.1" id="Layer_1" xmlns="http://www.w3.org/2000/svg" xmlns:xlink="http://www.w3.org/1999/xlink" x="0px" y="0px"
	 width="410px" height="410px" viewBox="0 0 410 410" style="enable-background:new 0 0 410 410;" xml:space="preserve">
<style type="text/css">
	.st0{fill:#F67C01;}
	.st1{fill:#FFFFFF;stroke:#FFFFFF;stroke-width:16;stroke-miterlimit:10;}
</style>
<rect x="-1.3" y="-0.4" class="st0" width="412" height="411.5"/>
<path class="st1" d="M138.4,168.8c0-2.9,0-5,0-7.2c0-18.9,0-37.8,0-56.7c0-4.3,0.7-6.7,6-6.7c63.9,0,127.9,0,191.8,0
	c4.1,0,5.7,1.7,5.7,5.7c0,43.8,0,87.8,0,131.5c0,4.5-1.9,5.7-6.2,5.7c-18.9-0.2-37.8,0-56.7,0c-2.2,0-4.3,0-7.2,0
	c-0.2,2.4-0.2,4.5-0.2,6.7c0,18.7-0.2,37.5,0,56.2c0,6.2-1.9,7.7-7.9,7.7c-62.7-0.2-125.6-0.2-188.2,0c-5.7,0-7.4-1.7-7.4-7.4
	c0.2-42.6,0.2-85.4,0-127.9c0-5.7,1.7-7.7,7.4-7.7C96.1,168.8,116.6,168.8,138.4,168.8z M264.2,241c-3.1,0-5.5,0-7.7,0
	c-36.6,0-73.4,0-110,0c-7.9,0-7.9,0-7.9-8.1c0-17.2,0-34.2,0-51.4c0-2.2,0-4.1,0-6c-21.8,0-42.6,0-63.4,0c0,43.3,0,86.3,0,129.1
	c63.1,0,126,0,188.9,0C264.2,283.6,264.2,262.8,264.2,241z M334.7,104.9c-63.6,0-126.3,0-189.2,0c0,21.5,0,42.3,0,63.9
	c2.9,0,5.3,0,7.7,0c36.8,0,73.7,0,110.5,0c5.7,0,7.9,1.7,7.7,7.4c-0.2,14.1,0,28.2,0,42.3c0,5,0,10.3,0,15.5c21.5,0,42.3,0,63.4,0
	C334.7,190.8,334.7,148.2,334.7,104.9z M145.3,175.2c-0.2,2.2-0.2,4.1-0.2,5.7c0,15.8,0.2,31.6-0.2,47.1c0,5,1.4,6.5,6.2,6.5
	c35.6-0.2,71.3,0,106.9,0c1.9,0,3.8,0,6,0c0-20.1,0-39.5,0-59.1C224.5,175.2,185.3,175.2,145.3,175.2z"/>
</svg>
