<?xml version="1.0" encoding="utf-8"?>
<!-- Generator: Adobe Illustrator 27.8.0, SVG Export Plug-In . SVG Version: 6.00 Build 0)  -->
<svg version="1.1" id="Layer_1" xmlns="http://www.w3.org/2000/svg" xmlns:xlink="http://www.w3.org/1999/xlink" x="0px" y="0px"
	 width="458px" height="115px" viewBox="0 0 458 115" style="enable-background:new 0 0 458 115;" xml:space="preserve">
<style type="text/css">
	.st0{fill:#FFFFFF;stroke:#FFFFFF;stroke-miterlimit:10;}
	.st1{fill:#FFFFFF;stroke:#FFFFFF;stroke-width:5;stroke-miterlimit:10;}
</style>
<g>
	<path class="st0" d="M233.1,101.7c-6.3,0-12.2,0-18.2,0c0-29.8,0-59.5,0-89.4c6,0,12,0,18.2,0c0,11.3,0,22.4,0,33.7
		c8.3-8.1,18-7.3,27.6-4.3c7.9,2.5,11,9.3,11.4,16.9c0.6,10.5,0.5,21,0.6,31.5c0.1,3.8,0,7.6,0,11.6c-6.1,0-12,0-18.1,0
		c-0.1-1-0.2-2-0.2-3c-0.1-11.6-0.1-23.2-0.2-34.7c0-1.8-0.5-3.6-1.1-5.3c-0.9-2.8-3-4.3-5.9-4.7c-8.8-1.2-13.9,3.2-14,12.1
		c-0.1,10.8,0,21.7,0,32.5C233.1,99.4,233.1,100.4,233.1,101.7z"/>
	<path class="st0" d="M315.9,62.3c0.1-3.6-1.7-6.1-5.1-6.9c-5.1-1.2-9.9-0.5-14,3.3c-4.5-2.6-8.9-5.1-13.5-7.7
		c4-4.8,8.9-7.9,14.5-9.6c9.9-2.9,19.6-2.6,28.6,3c4.9,3.1,7.8,7.8,7.9,13.5c0.2,14.5,0.1,29,0.1,43.7c-6,0-12,0-18.2,0
		c-0.1-1.1-0.2-2.2-0.4-3.4c-1.7,1-3.2,2.1-4.8,2.7c-8,3-16,2.5-23.4-1.4c-8.2-4.3-10.8-16.2-6-25.1c3.9-7.3,10.5-10.4,18.3-11.5
		c4.1-0.6,8.3-0.4,12.5-0.6C313.6,62.2,314.8,62.3,315.9,62.3z M316,76.4c-4.2,0-8.3-0.1-12.3,0.1c-1.2,0.1-2.6,0.8-3.6,1.6
		c-3.4,2.6-3.1,8.4,0.6,9.8c4.3,1.7,8.7,1.3,12.6-1.4C317,84,316.2,80.2,316,76.4z"/>
	<path class="st0" d="M206.5,50.6c-4.2,4.2-8,8-11.8,11.8c-2.3-1.7-4.6-3.7-7.2-5.3c-2.6-1.6-5.6-2.6-8.5-1
		c-1.2,0.7-2.5,2.2-2.6,3.5c-0.1,1,1.3,2.8,2.4,3.2c3.5,1.4,7.2,2.4,10.8,3.6c2.7,0.9,5.4,1.8,7.9,3c13.1,6,11.3,21.2,2.9,27.7
		c-9.3,7.3-24.4,7.6-35,0.6c-2.7-1.8-5.2-3.8-8.3-6.2c2.3-2.2,4.4-4.1,6.4-6.1c1.9-1.9,3.8-4,5.7-6.1c1.9,1.7,3.3,3.2,5,4.4
		c3.9,2.8,8.1,4.8,13,2.7c1.6-0.7,3.4-1.5,2.9-3.5c-0.3-1.2-1.8-2.6-3-3.1c-4.6-1.6-9.4-2.7-14.1-4.2c-1.7-0.5-3.3-1.6-4.9-2.4
		c-12.1-6.4-11.2-23.2,0.5-29.7c11.7-6.5,22.6-4.3,32.9,3.1c1.2,0.9,2.3,1.9,3.5,2.8C205.5,49.9,206,50.2,206.5,50.6z"/>
	<path class="st0" d="M443.5,51.2c-4.2,3.8-8.4,7.6-12.7,11.5c-2.2-4-5.2-6.7-9.7-7.3c-7.8-1.2-13.7,2.5-16.1,10.1
		c-2.3,7.2-0.2,15.1,5.1,19.4c6.4,5.1,16,3.3,20-3.8c0.2-0.3,0.4-0.6,0.7-1c4.2,3.8,8.4,7.6,12.5,11.3c-6.5,9.3-22.3,13.9-34.7,10.2
		c-13.8-4.1-22.3-15-22.8-29.1c-0.4-13.7,7.6-25.7,20.3-30.5C419.3,37,435.2,40.9,443.5,51.2z"/>
	<path class="st1" d="M44,42.7c0-1.2,0-2.1,0-3c0-7.9,0-15.8,0-23.7c0-1.8,0.3-2.8,2.5-2.8c26.7,0,53.5,0,80.2,0
		c1.7,0,2.4,0.7,2.4,2.4c0,18.3,0,36.7,0,55c0,1.9-0.8,2.4-2.6,2.4c-7.9-0.1-15.8,0-23.7,0c-0.9,0-1.8,0-3,0c-0.1,1-0.1,1.9-0.1,2.8
		c0,7.8-0.1,15.7,0,23.5c0,2.6-0.8,3.2-3.3,3.2c-26.2-0.1-52.5-0.1-78.7,0c-2.4,0-3.1-0.7-3.1-3.1c0.1-17.8,0.1-35.7,0-53.5
		c0-2.4,0.7-3.2,3.1-3.2C26.3,42.7,34.9,42.7,44,42.7z M96.6,72.9c-1.3,0-2.3,0-3.2,0c-15.3,0-30.7,0-46,0c-3.3,0-3.3,0-3.3-3.4
		c0-7.2,0-14.3,0-21.5c0-0.9,0-1.7,0-2.5c-9.1,0-17.8,0-26.5,0c0,18.1,0,36.1,0,54c26.4,0,52.7,0,79,0C96.6,90.7,96.6,82,96.6,72.9z
		 M126.1,16c-26.6,0-52.8,0-79.1,0c0,9,0,17.7,0,26.7c1.2,0,2.2,0,3.2,0c15.4,0,30.8,0,46.2,0c2.4,0,3.3,0.7,3.2,3.1
		c-0.1,5.9,0,11.8,0,17.7c0,2.1,0,4.3,0,6.5c9,0,17.7,0,26.5,0C126.1,51.9,126.1,34.1,126.1,16z M46.9,45.4
		c-0.1,0.9-0.1,1.7-0.1,2.4c0,6.6,0.1,13.2-0.1,19.7c0,2.1,0.6,2.7,2.6,2.7c14.9-0.1,29.8,0,44.7,0c0.8,0,1.6,0,2.5,0
		c0-8.4,0-16.5,0-24.7C80,45.4,63.6,45.4,46.9,45.4z"/>
	<path class="st0" d="M363.8,101.6c-6.1,0-12,0-18.1,0c0-20.2,0-40.4,0-60.7c5.9,0,11.8,0,18,0c0.1,1.3,0.2,2.7,0.3,4.4
		c5.3-5.1,11.4-6.4,18.1-5c3.5,0.7,3.5,0.8,2.9,4.3c-0.6,3.5-1.3,7-1.9,10.3c-2.7-0.4-5.2-1-7.7-1c-6.9-0.1-11,3.6-11.4,10.5
		c-0.3,5.3-0.2,10.7-0.2,16c0,6.2,0,12.3,0,18.5C363.9,99.7,363.9,100.6,363.8,101.6z"/>
</g>
</svg>
