<?xml version="1.0" encoding="utf-8"?>
<!-- Generator: Adobe Illustrator 27.8.0, SVG Export Plug-In . SVG Version: 6.00 Build 0)  -->
<svg version="1.1" id="Layer_1" xmlns="http://www.w3.org/2000/svg" xmlns:xlink="http://www.w3.org/1999/xlink" x="0px" y="0px"
	 width="140px" height="115px" viewBox="0 0 140 115" style="enable-background:new 0 0 140 115;" xml:space="preserve">
<style type="text/css">
	.st0{fill:#FFFFFF;stroke:#FFFFFF;stroke-width:5;stroke-miterlimit:10;}
</style>
<path class="st0" d="M42.2,42.4c0-1.2,0-2.1,0-3c0-7.9,0-15.8,0-23.7c0-1.8,0.3-2.8,2.5-2.8c26.7,0,53.5,0,80.2,0
	c1.7,0,2.4,0.7,2.4,2.4c0,18.3,0,36.7,0,55c0,1.9-0.8,2.4-2.6,2.4c-7.9-0.1-15.8,0-23.7,0c-0.9,0-1.8,0-3,0c-0.1,1-0.1,1.9-0.1,2.8
	c0,7.8-0.1,15.7,0,23.5c0,2.6-0.8,3.2-3.3,3.2c-26.2-0.1-52.5-0.1-78.7,0c-2.4,0-3.1-0.7-3.1-3.1c0.1-17.8,0.1-35.7,0-53.5
	c0-2.4,0.7-3.2,3.1-3.2C24.5,42.4,33.1,42.4,42.2,42.4z M94.8,72.6c-1.3,0-2.3,0-3.2,0c-15.3,0-30.7,0-46,0c-3.3,0-3.3,0-3.3-3.4
	c0-7.2,0-14.3,0-21.5c0-0.9,0-1.7,0-2.5c-9.1,0-17.8,0-26.5,0c0,18.1,0,36.1,0,54c26.4,0,52.7,0,79,0C94.8,90.3,94.8,81.7,94.8,72.6
	z M124.3,15.6c-26.6,0-52.8,0-79.1,0c0,9,0,17.7,0,26.7c1.2,0,2.2,0,3.2,0c15.4,0,30.8,0,46.2,0c2.4,0,3.3,0.7,3.2,3.1
	c-0.1,5.9,0,11.8,0,17.7c0,2.1,0,4.3,0,6.5c9,0,17.7,0,26.5,0C124.3,51.6,124.3,33.8,124.3,15.6z M45.1,45.1C45,46,45,46.8,45,47.5
	c0,6.6,0.1,13.2-0.1,19.7c0,2.1,0.6,2.7,2.6,2.7c14.9-0.1,29.8,0,44.7,0c0.8,0,1.6,0,2.5,0c0-8.4,0-16.5,0-24.7
	C78.2,45.1,61.8,45.1,45.1,45.1z"/>
</svg>
